<svg width="250" height="266" viewBox="0 0 250 266" fill="none" xmlns="http://www.w3.org/2000/svg">
<path d="M109.485 200V67H131.485V200H179.485C198.685 200 187.485 217.333 179.485 226H62.4848C41.6848 224.4 53.8181 208 62.4848 200H109.485Z" fill="#436F8A" stroke="black" stroke-width="5"/>
<path d="M13.0615 5.70725C-5.07685 8.98842 13.0615 102.147 13.0615 155.033C74.0113 150.366 181.778 168.254 226.827 155.033C231.855 153.557 243.611 81.9255 232.127 5.70726L197.236 5.70725L162.344 5.70725H119.944H88H13.0615Z" fill="#5EB2E6"/>
<path d="M13.0615 5.70725C-5.07685 8.98842 13.0615 102.147 13.0615 155.033C74.0113 150.366 181.778 168.254 226.827 155.033C231.855 153.557 243.611 81.9255 232.127 5.70726L197.236 5.70725L162.344 5.70725H119.944H88H13.0615ZM13.0615 5.70725C21.8583 4.11594 27.1947 5.70725 13.0615 5.70725Z" stroke="black" stroke-width="10"/>
<rect x="40" y="53" width="9" height="10" fill="white"/>
<rect x="40" y="103" width="9" height="10" fill="white"/>
<path d="M74.4941 88.1426C74.4941 80.7858 75.4707 73.722 77.4238 66.9512C79.4095 60.1803 82.3555 54.028 86.2617 48.4941C90.168 42.9603 94.2207 39.054 98.4199 36.7754L100.275 42.7324C95.5228 46.3783 91.6165 51.9447 88.5566 59.4316C85.5293 66.9186 83.8691 75.3008 83.5762 84.5781L83.5273 88.7285C83.5273 101.294 85.8223 112.199 90.4121 121.443C93.179 126.977 96.4668 131.307 100.275 134.432L98.4199 139.949C94.0905 137.54 89.9564 133.504 86.0176 127.84C78.3353 116.772 74.4941 103.54 74.4941 88.1426Z" fill="white"/>
<path d="M11.1529 210H191.241C211.14 210 197.542 243.333 188.256 260C133.865 261.667 22.2965 264.8 11.1529 264C0.00935364 263.2 6.50977 227.667 11.1529 210Z" fill="url(#paint0_linear)" stroke="black" stroke-width="2"/>
<rect width="7.13684" height="176.108" rx="3.56842" transform="matrix(0.0219585 0.999759 -0.999754 0.0221814 187.104 247.862)" fill="#F0F0F0"/>
<ellipse cx="24.0875" cy="221.5" rx="6.5" ry="6.96472" transform="rotate(90 24.0875 221.5)" fill="#F0F0F0"/>
<rect x="186.5" y="44.5" width="62" height="218" fill="url(#paint1_linear)" stroke="black" stroke-width="3"/>
<path d="M225 68C225 73.0723 221.322 77 217 77C212.678 77 209 73.0723 209 68C209 62.9277 212.678 59 217 59C221.322 59 225 62.9277 225 68Z" fill="#E7305B" stroke="black" stroke-width="2"/>
<rect x="195" y="103" width="44" height="5" fill="black"/>
<rect x="195" y="124" width="44" height="5" fill="black"/>
<rect x="195" y="150" width="13" height="3" fill="black"/>
<rect x="195" y="153" width="13" height="3" fill="#4E4C4C"/>
<rect x="226" y="150" width="13" height="3" fill="black"/>
<rect x="226" y="153" width="13" height="3" fill="#4E4C4C"/>
<defs>
<linearGradient id="paint0_linear" x1="201.19" y1="237" x2="14.1378" y2="237" gradientUnits="userSpaceOnUse">
<stop stop-color="#438A5E"/>
<stop offset="1" stop-color="#BAC964"/>
</linearGradient>
<linearGradient id="paint1_linear" x1="217.5" y1="43" x2="217.5" y2="264" gradientUnits="userSpaceOnUse">
<stop stop-color="#5EB2E6"/>
<stop offset="1" stop-color="#436F8A"/>
</linearGradient>
</defs>
</svg>
